<svg id="logo" xmlns="http://www.w3.org/2000/svg" cx="50%" yx="50%" viewBox="0 0 1500 1065.9">
<style type="text/css">
.st0{fill:#FFFFFF;}
</style>
<path class="st0" d="M79.1 632.7H5.9c-3.8 0-5.9 2-5.9 5.8v228.9c0 3.8 2.1 5.8 5.9 5.8h3.1c3.8 0 5.8-2.1 5.8-5.8v-93.8h64.3c41.9 0 73.2-27.2 73.2-70.8C152.3 659.2 121 632.7 79.1 632.7M78.4 759.9H14.8V646.5h63.6c35.1 0 58.4 20.3 58.4 56.4C136.8 738.9 113.4 759.9 78.4 759.9"/><path class="st0" d="M240 632.7h-3.1c-3.8 0-5.8 2.1-5.8 5.8v228.9c0 3.8 2.1 5.8 5.8 5.8h3.1c3.8 0 5.8-2.1 5.8-5.8V638.6C245.9 634.8 243.8 632.7 240 632.7"/><path class="st0" d="M372.2 684.6l134.4 184.9c2.1 2.8 4.1 3.8 7.2 3.8h3.4c3.8 0 5.8-2.1 5.8-5.8V638.6c0-3.8-2.1-5.8-5.8-5.8h-3.1c-3.8 0-5.8 2.1-5.8 5.8v182.9c0 12 1.7 30.2 1.7 30.2h-0.7c0 0-11.7-19.2-19.6-30.2L355.4 636.5c-2.1-2.8-4.1-3.8-7.2-3.8h-3.4c-3.8 0-5.8 2.1-5.8 5.8v228.9c0 3.8 2.1 5.8 5.8 5.8h3.1c3.8 0 5.8-2.1 5.8-5.8V684.6c0-12-1.7-30.2-1.7-30.2h0.7C352.6 654.4 364.3 673.6 372.2 684.6"/><path class="st0" d="M799.6 632.7c-3.8 0-5.8 2.1-5.8 5.8v228.9c0 3.8 2.1 5.8 5.8 5.8h3.1c3.8 0 5.8-2.1 5.8-5.8V638.6c0-3.8-2-5.8-5.8-5.8"/><path class="st0" d="M632.2 632.7c-3.8 0-5.8 2.1-5.8 5.8v228.9c0 3.8 2.1 5.8 5.8 5.8h3.1c3.8 0 5.8-2.1 5.8-5.8V638.6c0-3.8-2.1-5.8-5.8-5.8"/><path class="st0" d="M874.1 751.3c0 70.8 52.6 126.1 121.7 126.1 69.1 0 121.7-55.3 121.7-126.1 0-69.1-52.6-122.7-121.7-122.7C926.7 628.6 874.1 682.2 874.1 751.3M1102 751.3c0 63.3-45.4 112.1-106.2 112.1 -60.8 0-106.2-48.8-106.2-112.1 0-61.5 45.3-108.6 106.2-108.6C1056.7 642.7 1102 689.8 1102 751.3"/><path class="st0" d="M1306.9 859.6h-109v-221c0-3.8-2.1-5.8-5.8-5.8h-3.1c-3.8 0-5.8 2.1-5.8 5.8v228.9c0 3.8 2.1 5.9 5.8 5.9h117.9c3.8 0 5.8-2.1 5.8-5.9v-2C1312.7 861.6 1310.6 859.6 1306.9 859.6"/><path class="st0" d="M1494.2 859.6h-117.5V758.9h90.1c3.8 0 5.8-2.1 5.8-5.8v-2c0-3.8-2.1-5.8-5.8-5.8h-90.1v-98.7h111c3.8 0 5.9-2.1 5.9-5.8v-2.1c0-3.8-2.1-5.8-5.9-5.8h-119.9c-3.8 0-5.9 2.1-5.9 5.8v228.9c0 3.8 2.1 5.9 5.9 5.9h126.5c3.8 0 5.8-2.1 5.8-5.9v-2C1500 861.6 1497.9 859.6 1494.2 859.6"/><path class="st0" d="M693.9 753c0 13 10.5 23.6 23.6 23.6 13 0 23.6-10.5 23.6-23.6 0-13-10.6-23.6-23.6-23.6C704.4 729.5 693.9 740 693.9 753"/><path class="st0" d="M311 491l1.1-1.5c0.8-1.1 0.7-2.3-0.3-3.2l-33.5-28.9c-2.7-2.3-7.4-5.8-7.4-5.8l0.1-0.1c0 0 6.2 1.9 9.7 2.8l34.7 7.1c1.2 0.3 2.2 0 3-1.1l1.3-1.8c0.8-1.1 0.8-2.1 0.1-3.2l-17.1-31c-1.8-3.2-5.4-8.2-5.4-8.2l0.1-0.2c0 0 4.6 3.3 7.6 5.2l37.6 23.3c1.2 0.8 2.3 0.5 3.1-0.6l1.1-1.5c0.9-1.3 0.7-2.4-0.6-3.3l-52.6-32.4c-1.2-0.8-2.3-0.5-3.1 0.6l-1.5 2c-0.8 1.1-0.8 2.1-0.2 3.3l20.1 35.3c1.8 3.2 4.6 7.4 4.6 7.4l-0.1 0.2c0 0-4.8-1.3-8.4-2.1l-39.7-8.6c-1.3-0.3-2.2 0-3.1 1.1l-1.5 2c-0.8 1.1-0.7 2.3 0.4 3.2l46.7 40.4C308.9 492.4 310 492.3 311 491"/><path class="st0" d="M358.8 426.4c1.1 1 2.2 1 3.3-0.1l1.3-1.4c1-1 0.9-2.2-0.2-3.3L318 380c-1.1-1-2.3-1-3.3 0.1l-1.3 1.4c-1 1.1-0.9 2.2 0.2 3.3"/><path class="st0" d="M400.6 390.2c9.2-8.3 11.3-18.2 11.9-22.2 0.1-1.5-0.6-2.4-2-2.6l-1.3-0.2c-1.5-0.3-2.3 0.5-2.6 1.9 -0.6 3.7-2.5 11.8-9.9 18.4 -12.2 10.9-28.6 8.3-39.1-3.4 -10.3-11.6-10.5-27.5 1.5-38.2 6.8-6.1 14.1-7.5 17.6-7.9 1.5-0.2 2.3-1 2.1-2.4l-0.2-1.5c-0.3-1.4-1-2.3-2.5-2.2 -3.8 0.3-12.5 1.7-21.2 9.5 -14.5 13-15 33-2.3 47.3C365.4 401 385.6 403.6 400.6 390.2"/><path class="st0" d="M428.1 362.8c0.8 1.2 1.9 1.5 3.2 0.7l1.7-1.1c1.2-0.8 1.4-2 0.6-3.2L418.2 336l32-21.2 15.4 23.2c0.8 1.2 1.9 1.6 3.2 0.7l1.6-1c1.3-0.8 1.5-2 0.7-3.3L437 283.3c-0.8-1.3-2-1.5-3.3-0.7l-1.6 1c-1.2 0.8-1.4 2-0.6 3.2l15.3 23.1 -32 21.2L399.6 308c-0.8-1.3-2-1.5-3.2-0.7l-1.6 1.1c-1.3 0.8-1.4 2-0.6 3.2"/><path class="st0" d="M484.5 329.5l1.8-0.9c1.2-0.6 1.8-1.5 1.6-2.8l-2.1-20.3 23.9-11.5 14.7 14.2c0.9 1 2 1.1 3.2 0.6l1.9-0.9c1.5-0.8 1.7-2 0.5-3.3l-47.2-45.4c-0.9-1-2-1.1-3.1-0.6l-2.8 1.3c-1.1 0.5-1.7 1.4-1.5 2.8l6.2 65.2C481.9 329.6 482.9 330.2 484.5 329.5M481.3 265.3c0 0 3.7 4.4 5.9 6.7l18.3 17.8 -20.5 9.9 -2.5-25.4c-0.4-3.2-1.5-8.9-1.5-8.9L481.3 265.3z"/><path class="st0" d="M541.9 300.6c0.5 1.4 1.5 2 2.9 1.5l32.4-11.3c1.4-0.5 1.9-1.6 1.4-3l-0.4-1.1c-0.5-1.4-1.6-1.9-3-1.4l-28.4 9.9 -8.1-23.2 21.5-7.5c1.4-0.5 2-1.6 1.5-3l-0.4-1.2c-0.5-1.4-1.6-1.9-3-1.4l-21.5 7.5 -7.9-22.7 26.8-9.4c1.4-0.5 1.9-1.6 1.4-3l-0.4-1.1c-0.5-1.4-1.6-1.9-3-1.5L523 239.6c-1.4 0.5-1.9 1.5-1.4 3"/><path class="st0" d="M595.5 285.9l31.7-7.5c1.5-0.3 2.1-1.4 1.7-2.8l-0.3-1.1c-0.3-1.5-1.4-2.1-2.8-1.7l-27.5 6.5L585 222.8c-0.3-1.5-1.4-2.1-2.7-1.8l-1.9 0.5c-1.5 0.4-2 1.3-1.7 2.8l14.1 59.8C593.1 285.6 594 286.2 595.5 285.9"/><path class="st0" d="M888.4 1237.1l-20.9 6.7 -7.6-23.6 24.7-8c1.4-0.4 2-1.5 1.5-2.9l-0.3-1.1c-0.5-1.4-1.5-2-2.9-1.5l-28.7 9.2c-1.4 0.5-1.9 1.5-1.4 2.9l18.8 58.4c0.5 1.4 1.4 2 2.9 1.5l1.9-0.6c1.3-0.4 1.9-1.5 1.4-2.9l-8.4-25.9 20.9-6.7c1.4-0.5 1.9-1.5 1.4-2.9l-0.4-1.2C890.8 1237.1 889.9 1236.6 888.4 1237.1"/><path class="st0" d="M915.1 1195.3c-0.9-1-1.9-1.2-3.1-0.7l-2.8 1.3c-1.1 0.5-1.8 1.4-1.6 2.7l3.9 65.4c0.3 1.7 1.3 2.4 2.9 1.7l1.8-0.8c1.2-0.5 1.8-1.4 1.7-2.8l-1.3-20.3 24.3-10.6 14.1 14.7c0.9 1.1 2 1.2 3.2 0.7l1.9-0.8c1.6-0.7 1.7-1.9 0.6-3.2M916 1235.8l-1.5-25.5c-0.3-3.2-1.2-8.9-1.2-8.9l0.2-0.1c0 0 3.5 4.5 5.7 6.9l17.6 18.4L916 1235.8z"/><path class="st0" d="M1008.2 1214.6c-0.8-1.3-1.9-1.6-3.2-0.9l-24.6 14.1 -28.9-50.2c-0.8-1.3-1.9-1.6-3.1-0.9l-1.7 1c-1.3 0.7-1.5 1.9-0.8 3.2l30.6 53.2c0.8 1.3 1.8 1.7 3.1 0.9l28.2-16.2c1.3-0.7 1.6-1.9 0.9-3.2"/><path class="st0" d="M1057 1170.8l-1.3-0.3c-1.5-0.4-2.4 0.2-2.7 1.7 -0.9 3.6-3.7 11.5-11.6 17.4 -13.2 9.6-29.3 5.5-38.5-7.2 -9.2-12.5-7.8-28.4 5.2-37.9 7.4-5.4 14.8-6 18.2-6.1 1.5-0.1 2.3-0.8 2.4-2.2l0-1.5c-0.1-1.4-0.8-2.3-2.3-2.4 -3.8-0.1-12.5 0.5-22 7.4 -15.7 11.5-18.2 31.3-6.9 46.8 11.4 15.5 31.2 20 47.4 8.1 10-7.3 13-17 14-20.9C1059 1172.1 1058.5 1171.2 1057 1170.8"/><path class="st0" d="M1053.4 1097.5c-13.8 13.5-13.7 34.1-0.4 47.7 13.6 13.8 34.5 14.6 48.2 1.1 13.8-13.6 13.4-34.5-0.2-48.3C1087.7 1084.5 1067.2 1083.9 1053.4 1097.5M1097 1141.9c-11 10.8-27.9 10-39.1-1.5 -11-11.2-11.2-27.8-0.2-38.6 11.1-10.9 27.5-10.3 38.6 0.9C1107.4 1114.2 1108 1131 1097 1141.9"/><path class="st0" d="M717.4 1194.1c-177.7 0-337.2-105.7-406.4-269.4l-3.4 1.4c69.8 165 230.7 271.6 409.8 271.6 180.3 0 341.5-107.6 410.8-274l-3.4-1.4C1056.1 1087.4 896.2 1194.1 717.4 1194.1"/><path class="st0" d="M717.4 312c177.6 0 337.2 105.7 406.4 269.4l3.4-1.4c-69.8-165-230.7-271.6-409.8-271.6 -180.8 0-342.2 108-411.2 275l3.4 1.4C378.1 419 538.2 312 717.4 312"/></svg>
