<svg id="logo" xmlns="http://www.w3.org/2000/svg" cx="50%" yx="50%" viewBox="0 0 500 500">
<style type="text/css">  
.st0{fill:#FFFFFF;}
</style>
<path class="st0" d="M80.4 295.1L80.4 295.1c1 0 1.8-0.8 1.8-1.8v-86.5c0-1-0.8-1.8-1.8-1.8l0 0c-1 0-1.8 0.8-1.8 1.8v86.5C78.5 294.3 79.4 295.1 80.4 295.1z"/><path class="st0" d="M181.5 204.9L181.5 204.9c-1 0-1.8 0.8-1.8 1.8v86.5c0 1 0.8 1.8 1.8 1.8h0c1 0 1.8-0.8 1.8-1.8v-30.1 -56.4C183.3 205.7 182.5 204.9 181.5 204.9z"/><path class="st0" d="M304.3 204.9c-23.9 0-43.5 18.7-44.9 42.2 -0.1 0.9-0.1 1.9-0.1 2.8 0 1 0.1 1.9 0.1 2.8 1.5 23.5 21 42.2 44.9 42.2 24.9 0 45.1-20.2 45.1-45.1S329.2 204.9 304.3 204.9zM304.3 291.4c-22.8 0-41.4-18.6-41.4-41.4s18.6-41.4 41.4-41.4c22.8 0 41.4 18.6 41.4 41.4S327.1 291.4 304.3 291.4z"/><path class="st0" d="M358 204.9L358 204.9c-1 0-1.8 0.8-1.8 1.8v88.3h65.7c1 0 1.8-0.8 1.8-1.8l0 0c0-1-0.8-1.8-1.8-1.8h-62v-84.6C359.9 205.7 359.1 204.9 358 204.9z"/><path class="st0" d="M498.8 206.8L498.8 206.8c0-1-0.8-1.8-1.8-1.8h-65.7v43.2 3.7 43.2h65.7c1 0 1.8-0.8 1.8-1.8l0 0c0-1-0.8-1.8-1.8-1.8h-62v-39.5h43.5c1 0 1.8-0.8 1.8-1.8l0 0c0-1-0.8-1.8-1.8-1.8h-43.5v-39.5h62C497.9 208.6 498.8 207.8 498.8 206.8z"/><circle class="st0" cx="250" cy="250" r="2.4"/><path class="st0" d="M248.2 259.7v33.6c0 1 0.8 1.8 1.8 1.8 1 0 1.8-0.8 1.8-1.8v-33.6c-0.6 0.1-1.2 0.2-1.8 0.2C249.4 259.8 248.8 259.8 248.2 259.7z"/><path class="st0" d="M251.8 240.3v-33.6c0-1-0.8-1.8-1.8-1.8 -1 0-1.8 0.8-1.8 1.8v33.6c0.6-0.1 1.2-0.2 1.8-0.2C250.6 240.2 251.2 240.2 251.8 240.3z"/><path class="st0" d="M240.3 248.2h-47.9c-1 0-1.8 0.8-1.8 1.8s0.8 1.8 1.8 1.8l47.9 0c-0.1-0.6-0.2-1.2-0.2-1.8C240.2 249.4 240.2 248.8 240.3 248.2z"/><path class="st0" d="M8.7 293.2c0 1-0.8 1.8-1.8 1.8"/><path class="st0" d="M6.9 295.1c-1 0-1.8-0.8-1.8-1.8"/><path class="st0" d="M40.5 204.9C40.5 204.9 40.5 204.9 40.5 204.9l-35.4 0c0 0 0 84.8 0 88.3 0 1 0.8 1.8 1.8 1.8 1 0 1.8-0.8 1.8-1.8 0-3.1 0-21.2 0-21.2h29.4c18.9 0 34.4-15.4 34-34.3C71.8 220.2 57.8 205.9 40.5 204.9zM38.1 268.3H8.7v-59.7h29.9c16.6 0 30.1 13.6 29.9 30.3C68.2 255.3 54.5 268.3 38.1 268.3z"/><path class="st0" d="M95.2 295.1c-1 0-1.9-0.8-1.9-1.9v-86.5c0-0.8 0.5-1.5 1.3-1.8 0.7-0.3 1.6 0 2.1 0.6l65.8 84.9c0.9 1.1 2 0.8 2.4 0.7 0.3-0.1 1.4-0.6 1.4-2v-82.5c0-1 0.8-1.9 1.9-1.9s1.9 0.8 1.9 1.9v82.5c0 2.5-1.5 4.7-3.9 5.5 -2.4 0.8-5 0.1-6.5-1.9L97 212.2v81.1C97 294.3 96.2 295.1 95.2 295.1z"/><path class="st0" d="M250 429.8c-36.2 0-71.2-10.7-101-31 -29.1-19.8-51.7-47.5-65.1-79.9 -0.4-0.9 0.1-2 1-2.4 0.9-0.4 2 0.1 2.4 1 13.2 31.8 35.2 58.8 63.8 78.3 29.2 19.9 63.4 30.4 98.9 30.4s69.7-10.5 98.9-30.4c28.5-19.4 50.6-46.5 63.8-78.3 0.4-0.9 1.5-1.4 2.4-1 0.9 0.4 1.4 1.5 1 2.4 -13.5 32.4-36 60.1-65.1 79.9C321.2 419.1 286.2 429.8 250 429.8z"/><path class="st0" d="M414.4 183.7c-0.7 0-1.4-0.4-1.7-1.1 -13.2-31.8-35.2-58.8-63.8-78.3 -29.2-19.9-63.4-30.4-98.9-30.4 -35.5 0-69.7 10.5-98.9 30.4 -28.5 19.4-50.6 46.5-63.8 78.3 -0.4 0.9-1.5 1.4-2.4 1 -0.9-0.4-1.4-1.5-1-2.4 13.5-32.4 36-60.1 65.1-79.9 29.8-20.3 64.8-31 101-31s71.2 10.7 101 31c29.1 19.8 51.7 47.5 65.1 79.9 0.4 0.9-0.1 2-1 2.4C414.9 183.7 414.7 183.7 414.4 183.7z"/><path class="st0" d="M414.4 183.7c-0.7 0-1.4-0.4-1.7-1.1 -13.2-31.8-35.2-58.8-63.8-78.3 -29.2-19.9-63.4-30.4-98.9-30.4 -35.5 0-69.7 10.5-98.9 30.4 -28.5 19.4-50.6 46.5-63.8 78.3 -0.4 0.9-1.5 1.4-2.4 1 -0.9-0.4-1.4-1.5-1-2.4 13.5-32.4 36-60.1 65.1-79.9 29.8-20.3 64.8-31 101-31s71.2 10.7 101 31c29.1 19.8 51.7 47.5 65.1 79.9 0.4 0.9-0.1 2-1 2.4C414.9 183.7 414.7 183.7 414.4 183.7z"/><path class="st0" d="M336.8 432.5l-16 6.9 -5.2-12.1L335 419l0.8-0.3 -0.3-0.8 -0.3-0.8 -0.3-0.8 -0.8 0.3 -19.4 8.3c-0.6 0.3-1.1 0.8-1.3 1.4 -0.2 0.6-0.2 1.3 0 1.9l12 28 0.3 0.8 0.8-0.3 0.8-0.3 0.8-0.3 -0.3-0.8 -5.8-13.5 16-6.9L336.8 432.5z"/><path class="st0" d="M351.1 408.1c-0.4-0.3-0.9-0.4-1.4-0.4h0c-0.5 0-0.9 0.1-1.3 0.4 -0.8 0.5-1.3 1.4-1.1 2.4l3.9 34.2 0.2 1.4 1.2-0.7 0.8-0.5 0.5-0.3 -0.1-0.5 -1.4-12.1 15.9-9.9 10.3 6.5 0.5 0.3 0.5-0.3 0.8-0.5 1.2-0.7 -1.2-0.7L351.1 408.1zM365.8 420.5l-13.9 8.7 -2.1-18.8L365.8 420.5z"/><path class="st0" d="M406.6 402.7l-0.6-0.6c0 0 0 0-0.1 0l-0.6 0.6 -16.5 14.9c0 0 0 0-0.1 0l-20.3-22.5 -0.6-0.6c0 0 0 0-0.1 0l-0.6 0.6 -0.6 0.5 -0.6 0.6c0 0 0 0 0 0.1l0.6 0.6 20.4 22.6c0.5 0.5 1.2 0.8 1.9 0.8 0.6 0 1.2-0.2 1.7-0.6l16.6-15 0.6-0.6c0 0 0 0 0-0.1l-0.6-0.6L406.6 402.7z"/><path class="st0" d="M424.5 370.5C424.5 370.4 424.5 370.4 424.5 370.5l-0.8 0.2 -0.8 0.3 -0.8 0.3c0 0 0 0 0 0.1l0.2 0.5c1.6 4.5 1.1 9.6-1.6 13.5 -2.8 4-7.3 6.4-12.2 6.4 -3.4 0-6.7-1.2-9.3-3.3 -6.3-5.1-7.3-14.4-2.2-20.7 2.8-3.5 7-5.5 11.5-5.5 0.2 0 0.4 0 0.6 0l0.8 0c0 0 0 0 0 0l0-0.8 0-0.8 0.1-0.8c0 0 0 0 0 0l-0.8 0c-0.2 0-0.5 0-0.7 0 -5.3 0-10.2 2.3-13.5 6.4 -6 7.4-4.9 18.3 2.6 24.3 3.1 2.5 6.9 3.9 10.9 3.9 5.2 0 10.1-2.3 13.4-6.4 3.8-4.7 4.9-11.1 2.9-16.7L424.5 370.5z"/><path class="st0" d="M446.5 339c-1.4-4.4-4.4-8-8.5-10.2 -2.5-1.3-5.2-2-8-2v0.4c0 0 0 0 0 0l0-0.4h0c-6.5 0-12.4 3.6-15.4 9.3 -2.1 4.1-2.6 8.8-1.2 13.2 1.4 4.4 4.4 8 8.5 10.2 2.5 1.3 5.2 2 8 2 6.5 0 12.4-3.6 15.3-9.3C447.4 348.1 447.9 343.4 446.5 339zM443 351c-2.5 4.9-7.6 7.9-13.1 7.9 -2.4 0-4.7-0.6-6.8-1.7 -3.5-1.8-6.1-4.9-7.3-8.7 -1.2-3.8-0.8-7.7 1-11.2 2.6-4.9 7.6-7.9 13.1-7.9 2.4 0 4.7 0.6 6.8 1.7 3.5 1.8 6 4.9 7.2 8.7C445.2 343.5 444.9 347.5 443 351z"/><path class="st0" d="M63.8 132.8l-0.8-0.4 -0.4 0.8 -0.5 1 -0.3 0.5 0.3 0.4 20.5 26.8 -33.7-1.7 -0.6 0 -0.3 0.5 -0.5 1 -0.4 0.8 0.8 0.4 28.4 14.9 0.8 0.4 0.4-0.8 0.4-0.7 0.4-0.8 -0.8-0.4L53.9 163l28.8 1.5c0 0 0.1 0 0.1 0 0.9 0 1.8-0.6 2.2-1.3 0.4-0.8 0.3-1.9-0.2-2.7l-17.5-22.9L90.9 150l0.8 0.4 0.4-0.8 0.4-0.7 0.4-0.8 -0.8-0.4L63.8 132.8z"/><polygon class="st0" points="72.8 120.6 72.1 120.1 71.6 120.8 71.1 121.5 70.6 122.2 71.3 122.7 97.3 141.5 98 142 98.5 141.3 99 140.6 99.5 139.9 98.8 139.4 "/><path class="st0" d="M119 104.6l-0.8 0.2 -0.8 0.2 -0.8 0.2 0.2 0.8c1.4 4.9 0.1 10.3-3.4 14 -2.8 2.9-6.7 4.6-10.7 4.6 -3.8 0-7.3-1.4-10.1-4 -5.9-5.6-6.2-14.9-0.7-20.9 2.8-3 6.7-4.7 10.8-4.7 0.5 0 1.1 0 1.6 0.1l0.8 0.1 0.1-0.8 0.1-0.8 0.1-0.9 -0.9-0.1c-0.6-0.1-1.3-0.1-1.9-0.1 -4.9 0-9.3 1.9-12.6 5.4 -6.5 6.9-6.2 17.9 0.8 24.5 3.2 3 7.4 4.7 11.8 4.7 4.8 0 9.4-2 12.6-5.4 4.1-4.4 5.7-10.7 4.1-16.5L119 104.6z"/><polygon class="st0" points="132.1 64.5 131.6 63.8 130.9 64.3 130.2 64.8 129.5 65.3 130 66 138.8 78 120.9 91 112.2 79 111.7 78.3 111 78.8 110.3 79.3 109.6 79.8 110.1 80.5 129 106.4 129.5 107.1 130.2 106.6 130.8 106.1 131.5 105.6 131 104.9 122.4 93 140.3 80 148.9 91.9 149.4 92.6 150.1 92.1 150.8 91.6 151.5 91.1 151 90.4 "/><path class="st0" d="M159.3 50.8c-0.5-0.4-1-0.6-1.6-0.6 -0.4 0-0.7 0.1-1 0.2 -0.9 0.4-1.4 1.3-1.4 2.3L155 87.2l0 1.4 1.2-0.6 0.8-0.4 0.5-0.2 0-0.5 0.1-12.1 17-8 9.4 7.7 0.4 0.3 0.5-0.2 0.8-0.4 1.2-0.6 -1.1-0.9L159.3 50.8zM172.4 64.9l-14.8 6.9 0.1-19L172.4 64.9z"/><path class="st0" d="M216 64.5l-0.2-0.8 -0.8 0.2 -21.8 5.6 -3.2-12.6 16.8-4.3 -0.6-2.5 -16.8 4.3 -3.3-12.7 21.5-5.5 0.8-0.2 -0.2-0.8 -0.2-0.8 -0.2-0.8 -0.8 0.2 -21.6 5.6c-0.7 0.2-1.2 0.6-1.5 1.2 -0.3 0.6-0.4 1.2-0.2 1.9l7.6 29.5 0.2 0.8 0.8-0.2 23.5-6 0.8-0.2 -0.2-0.8L216 64.5z"/><path class="st0" d="M247.7 61.4l-0.1-0.9 -0.9 0.1 -22.2 1.9L222 32.2l-0.1-0.9 -0.9 0.1 -0.8 0.1 -0.9 0.1 0.1 0.9 2.6 30.3c0.1 1.3 1.2 2.3 2.5 2.3 0.1 0 0.1 0 0.2 0l22.2-1.9 0.9-0.1 -0.1-0.9L247.7 61.4z"/>
</svg>
